<svg xmlns="http://www.w3.org/2000/svg" width="10.675" height="15" viewBox="0 0 10.675 15">
  <g id="data_mgmt" transform="translate(-60.163 -20)">
    <path id="Path_5" data-name="Path 5" d="M3.515,7.1a11.335,11.335,0,0,0,3.985.64,11.335,11.335,0,0,0,3.985-.64c1-.39,1.353-.822,1.353-1.074v-1.9a5.548,5.548,0,0,1-1.117.577A11.943,11.943,0,0,1,7.5,5.4,11.979,11.979,0,0,1,3.279,4.7a5.507,5.507,0,0,1-1.117-.577v1.9C2.163,6.281,2.517,6.712,3.515,7.1Z" transform="translate(58 20)" fill="#1a1a1a"/>
    <path id="Path_6" data-name="Path 6" d="M3.515,10.693a8.363,8.363,0,0,0,1.393.4,13.338,13.338,0,0,0,2.592.242,13.338,13.338,0,0,0,2.592-.242,8.365,8.365,0,0,0,1.393-.4c1-.39,1.353-.822,1.353-1.074V7.8a5.735,5.735,0,0,1-.906.442A12.584,12.584,0,0,1,7.5,8.968a12.584,12.584,0,0,1-4.431-.722A5.8,5.8,0,0,1,2.163,7.8V9.621C2.163,9.871,2.517,10.3,3.515,10.693Z" transform="translate(58 20)" fill="#ff7f00"/>
    <path id="Path_7" data-name="Path 7" d="M7.5,15c2.948,0,5.337-.934,5.337-2.086v-1.52a5.624,5.624,0,0,1-.822.408l-.084.034A12.582,12.582,0,0,1,7.5,12.56a12.548,12.548,0,0,1-4.431-.724L2.985,11.8a5.624,5.624,0,0,1-.822-.408v1.52C2.163,14.066,4.552,15,7.5,15Z" transform="translate(58 20)" fill="#1a1a1a"/>
    <ellipse id="Ellipse_1" data-name="Ellipse 1" cx="5.337" cy="2.086" rx="5.337" ry="2.086" transform="translate(60.163 20)" fill="#ff7f00"/>
  </g>
</svg>
