<svg xmlns="http://www.w3.org/2000/svg" width="15" height="14.779" viewBox="0 0 15 14.779">
  <g id="demand" transform="translate(-58 -20.166)">
    <path id="Path_14" data-name="Path 14" d="M6.942,6.947.2,4.109a.146.146,0,0,0-.2.135v7.585a.469.469,0,0,0,.295.435L6.83,14.879a.146.146,0,0,0,.2-.136V7.082a.146.146,0,0,0-.09-.135Z" transform="translate(58 20.055)" fill="#1a1a1a"/>
    <path id="Path_15" data-name="Path 15" d="M7.557,6.141,14.07,3.4a.146.146,0,0,0,.005-.268L7.7.155a.469.469,0,0,0-.4,0L.925,3.13A.146.146,0,0,0,.93,3.4L7.443,6.141a.146.146,0,0,0,.114,0Z" transform="translate(58 20.055)" fill="#1a1a1a"/>
    <path id="Path_16" data-name="Path 16" d="M7.969,7.082v7.661a.146.146,0,0,0,.2.136l6.536-2.614A.469.469,0,0,0,15,11.829V4.244a.146.146,0,0,0-.2-.135L8.058,6.947a.146.146,0,0,0-.09.135Z" transform="translate(58 20.055)" fill="#ff7f00"/>
  </g>
</svg>
