<svg id="logout" xmlns="http://www.w3.org/2000/svg" width="15.532" height="15" viewBox="0 0 15.532 15">
  <path id="Path_17" data-name="Path 17" d="M9.8,14.839H1.821V3.481H9.8a.321.321,0,0,0,.32-.32V1.98a.321.321,0,0,0-.32-.32H.32A.321.321,0,0,0,0,1.98V16.34a.321.321,0,0,0,.32.32H9.8a.32.32,0,0,0,.32-.32V15.16A.32.32,0,0,0,9.8,14.839Z" transform="translate(0 -1.66)" fill="#fff"/>
  <path id="Path_18" data-name="Path 18" d="M30.333,23.978,26.02,19.665a.33.33,0,0,0-.453,0l-1.023,1.023a.32.32,0,0,0,0,.453l1.948,1.949H18.057a.321.321,0,0,0-.32.32V25a.321.321,0,0,0,.32.32h8.434l-1.948,1.949a.32.32,0,0,0,0,.453l1.023,1.024a.32.32,0,0,0,.453,0l4.313-4.313a.32.32,0,0,0,0-.453Z" transform="translate(-14.895 -16.705)" fill="#fff"/>
</svg>
