<svg xmlns="http://www.w3.org/2000/svg" width="115.219" height="30.1" viewBox="0 0 115.219 30.1">
  <g id="Group_113" data-name="Group 113" transform="translate(825.574 -1593.3)">
    <rect id="Rectangle_27" data-name="Rectangle 27" width="29.674" height="30.078" transform="translate(-825.574 1593.322)" fill="#ff8001"/>
    <g id="Group_109" data-name="Group 109" transform="translate(-810.251 1593.3)">
      <path id="Path_28" data-name="Path 28" d="M304.085,263.672v3.48h-3.81v9.378a1.762,1.762,0,0,0,2.2,2.2q.44,0,.843-.037a6.931,6.931,0,0,0,.769-.11v4.03a12.5,12.5,0,0,1-1.465.146q-.806.036-1.575.036a15.177,15.177,0,0,1-2.29-.165,5.393,5.393,0,0,1-1.905-.641,3.39,3.39,0,0,1-1.3-1.355,4.838,4.838,0,0,1-.476-2.308V267.152h-3.151v-3.48h3.151V256.3h5.2v7.372Z" transform="translate(-291.923 -256.3)" fill="#fff"/>
    </g>
    <path id="Path_29" data-name="Path 29" d="M335.9,281.223a6.109,6.109,0,0,1,.926-3.076,6.314,6.314,0,0,1,2.075-1.964,9.052,9.052,0,0,1,2.834-1.056,16.147,16.147,0,0,1,3.168-.315,21.565,21.565,0,0,1,2.927.2,8.979,8.979,0,0,1,2.7.8,5.335,5.335,0,0,1,2,1.649,4.61,4.61,0,0,1,.778,2.8v9.967a20,20,0,0,0,.148,2.482,4.477,4.477,0,0,0,.518,1.779h-5.335a7.441,7.441,0,0,1-.241-.908,7.884,7.884,0,0,1-.13-.945,6.849,6.849,0,0,1-2.964,1.815,11.909,11.909,0,0,1-3.483.519,9.4,9.4,0,0,1-2.556-.334,5.848,5.848,0,0,1-2.075-1.037,4.825,4.825,0,0,1-1.389-1.779,6.01,6.01,0,0,1-.5-2.556,5.582,5.582,0,0,1,.574-2.686,4.8,4.8,0,0,1,1.482-1.686,6.645,6.645,0,0,1,2.075-.945,22.267,22.267,0,0,1,2.353-.5q1.186-.185,2.334-.3a14.007,14.007,0,0,0,2.038-.334,3.544,3.544,0,0,0,1.408-.648,1.424,1.424,0,0,0,.481-1.241,2.8,2.8,0,0,0-.278-1.352,2.047,2.047,0,0,0-.741-.778,2.926,2.926,0,0,0-1.074-.37,8.9,8.9,0,0,0-1.315-.092A3.992,3.992,0,0,0,342.2,279a2.975,2.975,0,0,0-1.038,2.223Zm12.153,3.89a2.362,2.362,0,0,1-.833.463,8.51,8.51,0,0,1-1.075.278q-.574.111-1.2.185t-1.26.185a9.546,9.546,0,0,0-1.167.3,3.462,3.462,0,0,0-1,.5,2.377,2.377,0,0,0-.686.8,2.56,2.56,0,0,0-.259,1.223,2.469,2.469,0,0,0,.259,1.185,1.985,1.985,0,0,0,.7.76,2.966,2.966,0,0,0,1.037.389,6.633,6.633,0,0,0,1.223.111,4.65,4.65,0,0,0,2.409-.519,3.475,3.475,0,0,0,1.26-1.241,3.978,3.978,0,0,0,.5-1.464,10.15,10.15,0,0,0,.093-1.186Z" transform="translate(-1129.914 1325.162)" fill="#666"/>
    <path id="Path_30" data-name="Path 30" d="M404.649,278.778a3.7,3.7,0,0,0-2.112.574,4.564,4.564,0,0,0-1.389,1.482,6.414,6.414,0,0,0-.76,2,10.882,10.882,0,0,0-.222,2.168,10.426,10.426,0,0,0,.222,2.112,6.534,6.534,0,0,0,.723,1.945,4.147,4.147,0,0,0,1.352,1.426,3.715,3.715,0,0,0,2.075.556,3.855,3.855,0,0,0,2.909-1.056,5,5,0,0,0,1.279-2.834H413.8a8.681,8.681,0,0,1-2.964,5.817,9.568,9.568,0,0,1-6.262,2,10.484,10.484,0,0,1-3.946-.723,8.733,8.733,0,0,1-3.056-2.02,9.177,9.177,0,0,1-1.964-3.094,10.714,10.714,0,0,1-.7-3.946,12.753,12.753,0,0,1,.649-4.131,9.286,9.286,0,0,1,1.908-3.3,8.726,8.726,0,0,1,3.075-2.168,10.449,10.449,0,0,1,4.15-.778,12.027,12.027,0,0,1,3.279.445,8.773,8.773,0,0,1,2.816,1.352,6.995,6.995,0,0,1,2.909,5.465h-5.15A3.528,3.528,0,0,0,404.649,278.778Z" transform="translate(-1168.023 1325.162)" fill="#666"/>
    <path id="Path_31" data-name="Path 31" d="M462.9,263.494v3.52h-3.853V276.5a1.781,1.781,0,0,0,2.223,2.223c.3,0,.581-.012.853-.037a7.155,7.155,0,0,0,.778-.111v4.076a12.608,12.608,0,0,1-1.482.148q-.816.036-1.593.037a15.315,15.315,0,0,1-2.316-.167,5.455,5.455,0,0,1-1.927-.648,3.429,3.429,0,0,1-1.315-1.371,4.9,4.9,0,0,1-.482-2.334v-11.3H450.6v-3.52h3.186V256.3h5.261v7.194Z" transform="translate(-1203.636 1337)" fill="#666"/>
    <rect id="Rectangle_28" data-name="Rectangle 28" width="5.261" height="19.156" transform="translate(-738.069 1600.494)" fill="#666"/>
    <path id="Path_32" data-name="Path 32" d="M526.311,278.778a3.7,3.7,0,0,0-2.112.574,4.566,4.566,0,0,0-1.389,1.482,6.405,6.405,0,0,0-.76,2,10.885,10.885,0,0,0-.222,2.168,10.428,10.428,0,0,0,.222,2.112,6.532,6.532,0,0,0,.723,1.945,4.15,4.15,0,0,0,1.353,1.426,3.714,3.714,0,0,0,2.075.556,3.855,3.855,0,0,0,2.909-1.056,5,5,0,0,0,1.278-2.834h5.076a8.683,8.683,0,0,1-2.964,5.817,9.568,9.568,0,0,1-6.262,2,10.483,10.483,0,0,1-3.946-.723,8.738,8.738,0,0,1-3.057-2.02,9.183,9.183,0,0,1-1.964-3.094,10.721,10.721,0,0,1-.7-3.946,12.753,12.753,0,0,1,.649-4.131,9.285,9.285,0,0,1,1.908-3.3,8.725,8.725,0,0,1,3.075-2.168,10.452,10.452,0,0,1,4.15-.778,12.029,12.029,0,0,1,3.279.445,8.78,8.78,0,0,1,2.816,1.352,6.993,6.993,0,0,1,2.908,5.465H530.2A3.528,3.528,0,0,0,526.311,278.778Z" transform="translate(-1245.819 1325.162)" fill="#666"/>
    <rect id="Rectangle_29" data-name="Rectangle 29" width="5.263" height="5.263" transform="translate(-738.068 1593.322)" fill="#ff8001"/>
  </g>
</svg>
