<svg xmlns="http://www.w3.org/2000/svg" width="153.114" height="40" viewBox="0 0 153.114 40">
  <g id="Group_109" data-name="Group 109" transform="translate(825.574 -1593.3)">
    <rect id="Rectangle_27" data-name="Rectangle 27" width="39.434" height="39.971" transform="translate(-825.574 1593.329)" fill="#ff8001"/>
    <g id="Group_109-2" data-name="Group 109" transform="translate(-805.211 1593.3)">
      <path id="Path_28" data-name="Path 28" d="M308.085,266.1v4.624h-5.063v12.462a2.341,2.341,0,0,0,2.921,2.921q.584,0,1.12-.049a9.207,9.207,0,0,0,1.022-.146v5.355a16.618,16.618,0,0,1-1.947.195q-1.071.048-2.093.048a20.164,20.164,0,0,1-3.043-.219,7.166,7.166,0,0,1-2.532-.852,4.5,4.5,0,0,1-1.728-1.8,6.429,6.429,0,0,1-.632-3.067V270.721h-4.187V266.1h4.187v-9.8h6.912v9.8Z" transform="translate(-291.923 -256.3)" fill="#fff"/>
    </g>
    <path id="Path_29" data-name="Path 29" d="M336.093,283.331a8.118,8.118,0,0,1,1.231-4.087,8.39,8.39,0,0,1,2.757-2.609,12.029,12.029,0,0,1,3.767-1.4,21.457,21.457,0,0,1,4.209-.418,28.659,28.659,0,0,1,3.89.271,11.933,11.933,0,0,1,3.595,1.058,7.089,7.089,0,0,1,2.659,2.191,6.127,6.127,0,0,1,1.034,3.717V295.3a26.585,26.585,0,0,0,.2,3.3,5.95,5.95,0,0,0,.689,2.364h-7.09a9.887,9.887,0,0,1-.32-1.207,10.476,10.476,0,0,1-.172-1.255,9.1,9.1,0,0,1-3.939,2.413,15.826,15.826,0,0,1-4.628.69,12.493,12.493,0,0,1-3.4-.443,7.771,7.771,0,0,1-2.758-1.379,6.412,6.412,0,0,1-1.846-2.364,7.987,7.987,0,0,1-.665-3.4,7.418,7.418,0,0,1,.763-3.57,6.373,6.373,0,0,1,1.97-2.24,8.83,8.83,0,0,1,2.757-1.256,29.6,29.6,0,0,1,3.126-.665q1.576-.246,3.1-.394a18.611,18.611,0,0,0,2.708-.444,4.709,4.709,0,0,0,1.872-.862,1.892,1.892,0,0,0,.64-1.649,3.715,3.715,0,0,0-.369-1.8,2.72,2.72,0,0,0-.985-1.035,3.89,3.89,0,0,0-1.428-.492,11.825,11.825,0,0,0-1.747-.123,5.305,5.305,0,0,0-3.25.886,3.953,3.953,0,0,0-1.379,2.954Zm16.15,5.17a3.138,3.138,0,0,1-1.107.616,11.3,11.3,0,0,1-1.428.369q-.763.148-1.6.246t-1.674.246a12.689,12.689,0,0,0-1.551.393,4.6,4.6,0,0,0-1.329.665,3.159,3.159,0,0,0-.911,1.059,3.4,3.4,0,0,0-.345,1.625,3.281,3.281,0,0,0,.345,1.575,2.637,2.637,0,0,0,.936,1.01,3.941,3.941,0,0,0,1.379.517,8.814,8.814,0,0,0,1.625.148,6.179,6.179,0,0,0,3.2-.69,4.617,4.617,0,0,0,1.674-1.649,5.286,5.286,0,0,0,.664-1.945,13.493,13.493,0,0,0,.123-1.576Z" transform="translate(-1119.729 1327.358)" fill="#666"/>
    <path id="Path_30" data-name="Path 30" d="M407.854,280.082a4.916,4.916,0,0,0-2.806.762,6.064,6.064,0,0,0-1.846,1.97,8.524,8.524,0,0,0-1.01,2.659,14.463,14.463,0,0,0-.3,2.881,13.856,13.856,0,0,0,.3,2.806,8.682,8.682,0,0,0,.961,2.585,5.51,5.51,0,0,0,1.8,1.9,4.937,4.937,0,0,0,2.757.738,5.122,5.122,0,0,0,3.865-1.4,6.642,6.642,0,0,0,1.7-3.766h6.745a11.537,11.537,0,0,1-3.939,7.73,12.716,12.716,0,0,1-8.321,2.659,13.932,13.932,0,0,1-5.244-.96,11.605,11.605,0,0,1-4.061-2.684,12.2,12.2,0,0,1-2.61-4.111,14.238,14.238,0,0,1-.936-5.244,16.947,16.947,0,0,1,.862-5.49,12.339,12.339,0,0,1,2.536-4.382,11.6,11.6,0,0,1,4.087-2.881,13.886,13.886,0,0,1,5.515-1.034,15.981,15.981,0,0,1,4.357.591A11.658,11.658,0,0,1,416,277.2a9.3,9.3,0,0,1,3.865,7.263h-6.844Q412.333,280.082,407.854,280.082Z" transform="translate(-1150.771 1327.358)" fill="#666"/>
    <path id="Path_31" data-name="Path 31" d="M466.946,265.86v4.678h-5.121v12.6a2.367,2.367,0,0,0,2.954,2.954q.592,0,1.133-.049a9.509,9.509,0,0,0,1.034-.148v5.416a16.75,16.75,0,0,1-1.969.2q-1.084.048-2.117.049a20.357,20.357,0,0,1-3.077-.221,7.25,7.25,0,0,1-2.561-.862,4.556,4.556,0,0,1-1.748-1.822,6.509,6.509,0,0,1-.64-3.1V270.538H450.6V265.86h4.234V256.3h6.992v9.56Z" transform="translate(-1179.779 1337)" fill="#666"/>
    <rect id="Rectangle_28" data-name="Rectangle 28" width="6.992" height="25.456" transform="translate(-709.289 1602.86)" fill="#666"/>
    <path id="Path_32" data-name="Path 32" d="M529.516,280.082a4.917,4.917,0,0,0-2.806.762,6.068,6.068,0,0,0-1.846,1.97,8.512,8.512,0,0,0-1.01,2.659,14.464,14.464,0,0,0-.3,2.881,13.857,13.857,0,0,0,.3,2.806,8.683,8.683,0,0,0,.96,2.585,5.515,5.515,0,0,0,1.8,1.9,4.935,4.935,0,0,0,2.757.738,5.123,5.123,0,0,0,3.865-1.4,6.639,6.639,0,0,0,1.7-3.766h6.746a11.539,11.539,0,0,1-3.939,7.73,12.714,12.714,0,0,1-8.321,2.659,13.931,13.931,0,0,1-5.244-.96,11.612,11.612,0,0,1-4.062-2.684,12.2,12.2,0,0,1-2.61-4.111,14.248,14.248,0,0,1-.935-5.244,16.947,16.947,0,0,1,.862-5.49,12.339,12.339,0,0,1,2.536-4.382,11.594,11.594,0,0,1,4.086-2.881,13.89,13.89,0,0,1,5.515-1.034,15.983,15.983,0,0,1,4.357.591,11.668,11.668,0,0,1,3.742,1.8,9.293,9.293,0,0,1,3.865,7.263h-6.844Q534,280.082,529.516,280.082Z" transform="translate(-1214.138 1327.358)" fill="#666"/>
    <rect id="Rectangle_29" data-name="Rectangle 29" width="6.994" height="6.994" transform="translate(-709.287 1593.329)" fill="#ff8001"/>
  </g>
</svg>
