<svg xmlns="http://www.w3.org/2000/svg" width="23.274" height="30" viewBox="0 0 23.274 30">
  <g id="notification" transform="translate(0)">
    <path id="Path_19" data-name="Path 19" d="M175.208,404.514c0,.008,0,.016,0,.023a3.557,3.557,0,1,0,7.114,0c0-.008,0-.016,0-.023Z" transform="translate(-167.127 -378.094)" fill="#1a1a1a"/>
    <path id="Path_20" data-name="Path 20" d="M74.487,21.973l-3.2-4.7V11.4a8.158,8.158,0,0,0-6.556-8V1.6a1.6,1.6,0,0,0-3.2,0V3.406a8.158,8.158,0,0,0-6.556,8v5.867l-3.2,4.7A1.617,1.617,0,0,0,53.111,24.5H73.15a1.617,1.617,0,0,0,1.337-2.527Z" transform="translate(-51.493)" fill="#1a1a1a"/>
  </g>
</svg>
